<svg id="图层_1" data-name="图层 1" xmlns="http://www.w3.org/2000/svg" viewBox="0 0 100 100"><defs><style>.cls-1{fill:#fff;}</style></defs><path class="cls-1" d="M22.9167,36.0417h40.625v-10a13.0532,13.0532,0,0,0-3.9584-9.5834,13.58,13.58,0,0,0-19.1666,0,13.0532,13.0532,0,0,0-3.9584,9.5834h-6.25a19.08,19.08,0,0,1,5.7813-14.01A19.08,19.08,0,0,1,50,6.25a19.08,19.08,0,0,1,14.01,5.7813,19.08,19.08,0,0,1,5.7813,14.01v10h7.2916a6.224,6.224,0,0,1,6.25,6.25V87.5a6.224,6.224,0,0,1-6.25,6.25H22.9167a6.224,6.224,0,0,1-6.25-6.25V42.2917a6.224,6.224,0,0,1,6.25-6.25Zm0,51.4583H77.0833V42.2917H22.9167ZM50,72.9167a7.8216,7.8216,0,0,0,5.6771-2.2917,7.4423,7.4423,0,0,0,2.3437-5.5208,8.2,8.2,0,0,0-2.3437-5.6771,7.59,7.59,0,0,0-11.3542,0,8.2,8.2,0,0,0-2.3437,5.6771,7.4423,7.4423,0,0,0,2.3437,5.5208A7.8216,7.8216,0,0,0,50,72.9167ZM22.9167,87.5v0Z"/></svg>